{"title":"Season Of The Witch CAM XViD - IMAGiNE","uid":6095582,"size":752715381,"categoryP":"video","categoryS":"movies","magnet":"?xt=urn:btih:84e90e44fe46f38673f3d772d150e4bba5f88392&amp;dn=Season+Of+The+Witch+CAM+XViD+-+IMAGiNE&amp;tr=udp%3A%2F%2Ftracker.openbittorrent.com%3A80&amp;tr=udp%3A%2F%2Fopen.demonii.com%3A1337&amp;tr=udp%3A%2F%2Ftracker.coppersurfer.tk%3A6969&amp;tr=udp%3A%2F%2Fexodus.desync.com%3A6969","seeders":0,"leechers":0,"uploader":"SAFCukO09","files":54,"time":1294758602,"description":"                          Another Fine Release Brought to you from - IMAGiNE                  \n                                               \n\n********************************************************************************************************************                                \n                               Season Of The Witch CAM XViD - IMAGiNE\n********************************************************************************************************************\n\nRipper ...........:IMAGiNE                                       IMDB Rating.......:5.9/10                            \nVideo Codec.......:XVID                                          Release Date......:11/01/11\nAudio Codec.......:MP3                                           Theatre Date......:07/01/11\nAudio Bitrate.....:128                                           Runtime...........:1h 24mn\nSubtitles.........:NIL                                           Language..........:ENGLISH\nResolution........:720 x 416                                     IMDb URL..........:http://www.imdb.com/title/tt0479997/\n\n\nDETAILS:\n\nVideo\nID                               : 0\nFormat                           : MPEG-4 Visual\nFormat profile                   : Advanced Simple@L5\nFormat settings, BVOP            : Yes\nFormat settings, QPel            : No\nFormat settings, GMC             : No warppoints\nFormat settings, Matrix          : Default (MPEG)\nMuxing mode                      : Packed bitstream\nCodec ID                         : XVID\nCodec ID/Hint                    : XviD\nDuration                         : 1h 24mn\nBit rate                         : 1 032 Kbps\nWidth                            : 720 pixels\nHeight                           : 416 pixels\nDisplay aspect ratio             : 16:9\nFrame rate                       : 25.000 fps\nColor space                      : YUV\nChroma subsampling               : 4:2:0\nBit depth                        : 8 bits\nScan type                        : Progressive\nBits/(Pixel*Frame)               : 0.138\nStream size                      : 621 MiB (88%)\nWriting library                  : XviD 1.2.1 (UTC 2008-12-04)\n\nAudio\nID                               : 1\nFormat                           : MPEG Audio\nFormat version                   : Version 1\nFormat profile                   : Layer 3\nCodec ID                         : 55\nCodec ID/Hint                    : MP3\nDuration                         : 1h 24mn\nBit rate mode                    : Constant\nBit rate                         : 128 Kbps\nChannel(s)                       : 2 channels\nSampling rate                    : 44.1 KHz\nStream size                      : 77.1 MiB (11%)\nAlignment                        : Split accross interleaves\nInterleave, duration             : 40 ms (1.00 video frame)\nInterleave, preload duration     : 500 ms\n\n\nSOURCES:\n\nVIDEO: Season Of The Witch.ELEKTRI4KA... thanks matey\nAUDIO: Own...\n\nNOTES:\n\nIMAGiNE bringing you another release..........\n\nHere we are with Season Of The Witch..........\nNow the video we did our normal things to it of white balance, gamma, sat,\nand rgb color adjustments as well as a slight sharpening filter The audio\nis our own cam audio It was just a matter of syncing the audio\nand muxing it to the video.\n\n\nEnjoy...\n\n\nSCREENS:\n\n\n[center][img]http://www.grinshare.com/img/CQGVJB.png[/img][/center]\n[center][img]http://www.grinshare.com/img/N7HJYO.png[/img][/center]\n","torrent":{"xt":"urn:btih:84e90e44fe46f38673f3d772d150e4bba5f88392","amp;dn":"Season+Of+The+Witch+CAM+XViD+-+IMAGiNE","amp;tr":["udp%3A%2F%2Ftracker.openbittorrent.com%3A80","udp%3A%2F%2Fopen.demonii.com%3A1337","udp%3A%2F%2Ftracker.coppersurfer.tk%3A6969","udp%3A%2F%2Fexodus.desync.com%3A6969"],"infoHash":"84e90e44fe46f38673f3d772d150e4bba5f88392","infoHashBuffer":{"type":"Buffer","data":[132,233,14,68,254,70,243,134,115,243,215,114,209,80,228,187,165,248,131,146]},"announce":[],"urlList":[]}}